<svg class="svg-icon" width= "1em" height= "1em" vertical-align= "middle" fill= "currentColor" overflow= "hidden";" viewBox="0 0 1024 1024" version="1.1" xmlns="http://www.w3.org/2000/svg"><path d="M810.666667 128H213.333333c-46.933333 0-85.333333 38.4-85.333333 85.333333v597.333334c0 46.933333 38.4 85.333333 85.333333 85.333333h597.333334c46.933333 0 85.333333-38.4 85.333333-85.333333V213.333333c0-46.933333-38.4-85.333333-85.333333-85.333333z m-132.266667 482.133333l-149.333333 149.333334c-8.533333 8.533333-21.333333 8.533333-29.866667 0l-149.333333-149.333334c-8.533333-8.533333-8.533333-21.333333 0-29.866666l8.533333-8.533334c4.266667-4.266667 8.533333-4.266667 17.066667-4.266666H426.666667V405.333333c0-12.8 8.533333-21.333333 21.333333-21.333333h128c12.8 0 21.333333 8.533333 21.333333 21.333333v162.133334h55.466667c4.266667 0 12.8 0 17.066667 4.266666l8.533333 8.533334c8.533333 8.533333 8.533333 21.333333 0 29.866666zM810.666667 298.666667H213.333333V213.333333h597.333334v85.333334z"  /></svg>